<svg xmlns="http://www.w3.org/2000/svg" viewBox="0 0 311.57 171.66"><defs><style>.cls-1{fill:#297b6c;}.cls-2{fill:#282323;}</style></defs><title>Vivacity-logo</title><g id="Layer_2" data-name="Layer 2"><g id="Layer_1-2" data-name="Layer 1"><polygon class="cls-1" points="45.83 18.59 45.83 18.59 45.83 18.59 45.83 18.59"/><polygon class="cls-1" points="206.64 0 206.64 0.01 206.64 0 206.64 0"/><polygon class="cls-1" points="70.11 43.27 64.08 37.06 58.02 30.88 51.94 24.72 45.83 18.59 51.56 25.09 57.32 31.54 63.11 37.98 68.09 43.47 70.3 43.47 70.11 43.27"/><polygon class="cls-1" points="150.6 36.12 141.77 27.65 141.62 22.18 141.44 16.56 141.26 22.18 141.11 27.79 141.11 27.92 141.21 28.03 149.72 36.99 155.94 43.47 158.17 43.47 150.6 36.12"/><polygon class="cls-1" points="103.9 38.65 111.76 31.17 119.85 23.42 127.92 15.68 135.97 7.9 127.61 15.33 119.28 22.81 110.95 30.29 102.65 37.79 102.41 38 102.41 38.33 102.35 43.47 103.95 43.47 103.9 38.65"/><polygon class="cls-1" points="260.2 40.06 265.75 34.07 265.75 34.07 259.94 39.8 256.26 43.47 257.02 43.47 260.2 40.06"/><path class="cls-1" d="M186.6,37.12,197,26.53l9-.12L206,30.09l-.19,13.38h1.73l-.2-13.38-.07-3.7,3.69-.05,7.17-.11,7.17-.14h.2l.13-.14,7.31-7.56c2.45-2.52,4.86-5.07,7.28-7.61-2.55,2.41-5.12,4.8-7.65,7.23l-7.46,7.13-7-.14-7.17-.11-3.72-.05L207,15.05l-.17-7.52L206.64,0l-.21,7.52-.17,7.52-.19,9.77-9.47-.13h-.38L196,25,185.07,35.59l-8,7.88h3.25Z"/><path class="cls-1" d="M238,146.31l.13-4.66c.1-4.87.22-9.74.29-14.62l.13-7.3.1-7.32,0-2.2h-1.93v.5l-6.59,6.61-8.31,8.41-22.7-.22-11.52-.09-9.61-.06-.12-.12,0-15h-2.54l0,15.14-10.82,0-5.55,0,3.34-3.28c4-3.91,7.93-7.86,11.88-11.79h-3.57c-3.34,3.36-6.69,6.71-10,10.09l-4.89,5h-2.72l-22.5,0-15.54-15h-3.59l17.7,17.23.38.37H130l23,0h.26L148.12,133c-4.16,4.27-8.34,8.51-12.47,12.79l-7,7.26-1.3-1.34-9.39-9.62-9.44-9.58L99,123q-2.35-2.37-4.72-4.72l2.93-2.92,5.15-5.16H99.93l-3.85,4-2.84,3-3.73-3.73-3.29-3.28H82.61l5.14,5.07L91.54,119l-5.09,5.33-13,.22h-.17l-.11.11L66,132l-7.09,7.34,7.4-7,7.25-6.94,13.17.23H87l.19-.19,5.4-5.38,4.78,4.67,9.64,9.38,9.67,9.34,9.71,9.3,1.37,1.3-4.49,4.68-6.17,6.47-6.13,6.5,6.5-6.13,6.48-6.15,4.71-4.52,7.5,7.1q4.89,4.62,9.83,9.18-4.62-4.89-9.28-9.74L129.53,154l7.28-7c4.29-4.13,8.53-8.31,12.8-12.46l6.89-6.76,8.07,0,11.51-.07h.75l9.54,9.35q5.31,5.22,10.64,10.39l.31.3h.4l13.94-.16,13.94-.21,11.81-.24.05,1.87.23,7.31.22-7.31.05-1.88,1.57,0q7-.15,13.94-.36-7-.19-13.94-.35Zm-12.38-.25-13.94-.21-13.51-.16q-5.07-5.16-10.17-10.28l-7.71-7.76,7.33,0,11.52-.1,23-.22h.34l.22-.24,8.35-8.84,5.68-6.08v.27l.1,7.32L237,127c.07,4.88.19,9.75.3,14.62l.12,4.65Z"/><polygon class="cls-2" points="303.85 107.11 6.9 107.11 0 110.22 311.57 110.22 303.85 107.11"/><polygon class="cls-2" points="0 43.47 6.9 46.57 303.85 46.57 311.57 43.47 0 43.47"/><path class="cls-2" d="M23.62,86.36v8.16L7.75,58.21l.68.42a27.85,27.85,0,0,1,9.38,10.79L22.2,79.53a17.06,17.06,0,0,1,1.42,6.83"/><path class="cls-2" d="M63.89,58.47H64V90a4.66,4.66,0,0,1-4.66,4.66V63.05a4.58,4.58,0,0,1,4.57-4.58"/><path class="cls-2" d="M245.08,95.21V63.13h-3.82a17.06,17.06,0,0,1-9.47-2.87L229.88,59h35.48l-2,1.34a17,17,0,0,1-9.37,2.8h-4.21V90.55a4.66,4.66,0,0,1-4.66,4.66"/><path class="cls-2" d="M193.79,84.9a7.76,7.76,0,0,1-3.44,8.77,10.39,10.39,0,0,1-5.13,1.54c-5.55.1-9.15-4.06-10.6-6.25-4.7-7.13-4.82-18.76.95-25.3,1.3-1.47,4.53-5.14,9.65-5.19A10.71,10.71,0,0,1,191,60.28a6.71,6.71,0,0,1,2.78,7.61c-.61-1-4-4.73-8-4.68s-6.33,2.81-7.31,3.93c-4.38,5-3.46,13.87.11,19.27,1.1,1.67,3,4.73,7.2,4.65s7.58-4.43,8-6.16"/><path class="cls-2" d="M25.26,86.38v8.14L41.12,58.21l-.68.42a27.91,27.91,0,0,0-9.37,10.79L26.69,79.5a17.31,17.31,0,0,0-1.43,6.88"/><path class="cls-2" d="M137.45,66.35V58.21L121.58,94.52l.69-.42a28,28,0,0,0,9.38-10.8L136,73.23a17.3,17.3,0,0,0,1.42-6.88"/><path class="cls-2" d="M139.1,66.35V58.21L155,94.52l-.68-.42a27.89,27.89,0,0,1-9.38-10.8l-4.38-10.07a17.3,17.3,0,0,1-1.42-6.88"/><path class="cls-2" d="M219,59h.09V90.55a4.66,4.66,0,0,1-4.66,4.66V63.56A4.58,4.58,0,0,1,219,59"/><path class="cls-2" d="M95.45,86.57v8.17L79.59,58.42l.68.42a28,28,0,0,1,9.38,10.81L94,79.74a17.26,17.26,0,0,1,1.41,6.83"/><path class="cls-2" d="M97.1,86.59v8.15L113,58.42l-.69.42a28.07,28.07,0,0,0-9.38,10.81L98.52,79.72a17.29,17.29,0,0,0-1.42,6.87"/><path class="cls-2" d="M302.31,58.75l-5,1.7a7.92,7.92,0,0,0-3.67,2.63l-7.49,9.66-7.25-9.64a7.77,7.77,0,0,0-3.64-2.67l-4.72-1.68,13.29,17.6V94.69H289V76.06h-.24Z"/></g></g></svg>